<svg width="96" height="34" viewBox="0 0 96 34" fill="none" xmlns="http://www.w3.org/2000/svg">
<path d="M11.9893 34H0V30.3043H7.9929V11.087H0V0H11.9893V3.69565H3.99645V7.3913H11.9893V34Z" fill="#FAFAFA"/>
<path d="M27.9751 0V3.69565H23.9787V34H19.9822V3.69565H15.9858V0H27.9751Z" fill="#FAFAFA"/>
<path d="M58.0284 34H31.9716V0H35.968V30.3043H54.032V0H58.0284V34Z" fill="#FAFAFA"/>
<path d="M75.6181 3.69565H66.0213V30.3043H67.581L75.6181 3.69565ZM62.0249 34V0H79.9343L71.3377 34H62.0249Z" fill="#FAFAFA"/>
<path d="M96 11.087H92.0036V34H88.0071V11.087H84.0107V0H88.0071V7.3913H92.0036V0H96V11.087Z" fill="#FAFAFA"/>
</svg>
